<?xml version="1.0" standalone="no"?>
<!DOCTYPE svg PUBLIC "-//W3C//DTD SVG 20010904//EN"
 "http://www.w3.org/TR/2001/REC-SVG-20010904/DTD/svg10.dtd">
<svg version="1.0" xmlns="http://www.w3.org/2000/svg"
 width="512.000000pt" height="512.000000pt" viewBox="0 0 512.000000 512.000000"
 preserveAspectRatio="xMidYMid meet">
<metadata>
Created by potrace 1.14, written by Peter Selinger 2001-2017
</metadata>
<g transform="translate(0.000000,512.000000) scale(0.100000,-0.100000)"
fill="#000000" stroke="none">
<path d="M2260 4573 c-12 -54 -38 -142 -57 -195 l-35 -98 -290 0 c-190 0 -287
-3 -283 -10 4 -6 108 -10 281 -10 200 0 274 -3 274 -12 0 -21 -132 -263 -197
-362 -83 -125 -196 -266 -306 -382 -48 -50 -84 -94 -81 -97 17 -17 274 159
393 269 l81 76 0 -547 c0 -517 1 -547 18 -541 9 4 63 28 119 54 l103 47 0 253
0 252 360 0 360 0 0 -170 0 -170 -202 -1 c-200 -1 -202 -1 -138 -15 144 -31
242 -106 256 -196 7 -43 10 -44 113 -28 107 18 176 67 199 142 19 59 22 138
22 588 l0 445 35 24 c20 13 34 28 33 33 -2 5 -50 44 -107 87 l-103 79 -68 -72
-69 -72 -333 1 c-317 0 -334 1 -360 20 -15 11 -28 23 -28 26 0 3 24 42 54 87
72 107 142 237 188 347 37 90 37 90 93 115 l57 25 -167 48 c-92 27 -173 51
-180 53 -8 4 -19 -26 -35 -93z m740 -793 l0 -150 -360 0 -360 0 0 150 0 150
360 0 360 0 0 -150z m0 -330 l0 -160 -360 0 -360 0 0 160 0 160 360 0 360 0 0
-160z"/>
<path d="M3213 4384 c-54 -58 -99 -109 -101 -115 -2 -5 90 -9 237 -9 133 0
241 3 241 8 -1 4 -31 30 -68 58 -37 28 -99 77 -139 108 l-72 56 -98 -106z"/>
<path d="M2410 2314 l0 -134 -405 0 c-263 0 -405 -3 -405 -10 0 -7 322 -10
945 -10 520 0 945 2 945 3 0 6 -271 212 -278 212 -4 0 -47 -44 -97 -97 l-90
-97 -187 0 -188 -1 0 62 c0 54 4 66 27 90 14 15 25 29 22 31 -2 2 -68 22 -146
44 l-143 40 0 -133z"/>
<path d="M2761 1913 c-39 -120 -71 -222 -71 -226 0 -18 29 3 185 132 123 103
178 142 211 151 24 7 44 15 44 19 -1 5 -250 125 -290 139 -5 2 -41 -95 -79
-215z"/>
<path d="M2045 2068 c60 -67 100 -147 124 -248 21 -91 41 -127 78 -141 51 -19
136 35 162 104 53 139 -65 258 -314 318 -44 10 -84 19 -88 19 -5 0 12 -23 38
-52z"/>
<path d="M3202 1880 l-94 -100 226 0 c124 0 226 2 226 4 0 7 -248 196 -257
196 -4 0 -50 -45 -101 -100z"/>
<path d="M1860 1335 l0 -384 83 30 c45 17 97 36 115 42 17 6 32 16 32 24 0 10
33 13 155 13 l155 0 0 -160 0 -160 -417 -3 -418 -2 417 -3 417 -2 3 -154 3
-154 115 53 115 53 3 266 2 266 170 0 170 0 0 -56 c0 -31 3 -54 8 -52 4 2 56
21 115 43 l107 39 0 242 0 242 35 29 35 28 -94 73 c-52 39 -97 72 -99 72 -2 0
-26 -27 -52 -60 l-48 -60 -438 0 c-265 0 -439 4 -441 9 -3 10 -222 111 -239
111 -5 0 -9 -167 -9 -385z m1120 125 l0 -120 -445 0 -445 0 0 120 0 120 445 0
445 0 0 -120z m0 -260 l0 -120 -445 0 -445 0 0 120 0 120 445 0 445 0 0 -120z"/>
<path d="M3230 830 c-51 -55 -91 -103 -88 -105 3 -3 106 -4 229 -3 l223 3
-131 103 c-73 56 -134 102 -136 102 -3 0 -46 -45 -97 -100z"/>
</g>
</svg>
